<svg width="491" height="121" viewBox="0 0 491 121" fill="none" xmlns="http://www.w3.org/2000/svg">
<g filter="url(#filter0_ddi_0_1)">
<circle cx="60.5" cy="60.5" r="33.5" fill="#292929"/>
<circle cx="60.5" cy="60.5" r="33" stroke="black" stroke-opacity="0.07"/>
</g>
<circle cx="61" cy="60" r="16" stroke="url(#paint0_linear_0_1)" stroke-width="6"/>
<path d="M127.968 36.592V88H166.992V78.496H139.272V65.896H164.184V57.112H139.272V46.096H166.416V36.592H127.968ZM192.008 88L204.608 50.776H194.456L186.608 76.192H186.464L178.616 50.776H167.888L180.632 88H192.008ZM231.718 65.392H215.086C215.134 64.672 215.278 63.856 215.518 62.944C215.806 62.032 216.262 61.168 216.886 60.352C217.558 59.536 218.422 58.864 219.478 58.336C220.582 57.76 221.95 57.472 223.582 57.472C226.078 57.472 227.926 58.144 229.126 59.488C230.374 60.832 231.238 62.8 231.718 65.392ZM215.086 71.872H241.942C242.134 68.992 241.894 66.232 241.222 63.592C240.55 60.952 239.446 58.6 237.91 56.536C236.422 54.472 234.502 52.84 232.15 51.64C229.798 50.392 227.038 49.768 223.87 49.768C221.038 49.768 218.446 50.272 216.094 51.28C213.79 52.288 211.798 53.68 210.118 55.456C208.438 57.184 207.142 59.248 206.23 61.648C205.318 64.048 204.862 66.64 204.862 69.424C204.862 72.304 205.294 74.944 206.158 77.344C207.07 79.744 208.342 81.808 209.974 83.536C211.606 85.264 213.598 86.608 215.95 87.568C218.302 88.48 220.942 88.936 223.87 88.936C228.094 88.936 231.694 87.976 234.67 86.056C237.646 84.136 239.854 80.944 241.294 76.48H232.294C231.958 77.632 231.046 78.736 229.558 79.792C228.07 80.8 226.294 81.304 224.23 81.304C221.35 81.304 219.142 80.56 217.606 79.072C216.07 77.584 215.23 75.184 215.086 71.872ZM245.845 50.776V88H256.069V71.224C256.069 69.544 256.237 67.984 256.573 66.544C256.909 65.104 257.461 63.856 258.229 62.8C259.045 61.696 260.101 60.832 261.397 60.208C262.693 59.584 264.277 59.272 266.149 59.272C266.773 59.272 267.421 59.32 268.093 59.416C268.765 59.464 269.341 59.536 269.821 59.632V50.128C269.005 49.888 268.261 49.768 267.589 49.768C266.293 49.768 265.045 49.96 263.845 50.344C262.645 50.728 261.517 51.28 260.461 52C259.405 52.672 258.469 53.512 257.653 54.52C256.837 55.48 256.189 56.536 255.709 57.688H255.565V50.776H245.845ZM271.238 62.224C271.382 59.824 271.982 57.832 273.038 56.248C274.094 54.664 275.438 53.392 277.07 52.432C278.702 51.472 280.526 50.8 282.542 50.416C284.606 49.984 286.67 49.768 288.734 49.768C290.606 49.768 292.502 49.912 294.422 50.2C296.342 50.44 298.094 50.944 299.678 51.712C301.262 52.48 302.558 53.56 303.566 54.952C304.574 56.296 305.078 58.096 305.078 60.352V79.72C305.078 81.4 305.174 83.008 305.366 84.544C305.558 86.08 305.894 87.232 306.374 88H296.006C295.814 87.424 295.646 86.848 295.502 86.272C295.406 85.648 295.334 85.024 295.286 84.4C293.654 86.08 291.734 87.256 289.526 87.928C287.318 88.6 285.062 88.936 282.758 88.936C280.982 88.936 279.326 88.72 277.79 88.288C276.254 87.856 274.91 87.184 273.758 86.272C272.606 85.36 271.694 84.208 271.022 82.816C270.398 81.424 270.086 79.768 270.086 77.848C270.086 75.736 270.446 74.008 271.166 72.664C271.934 71.272 272.894 70.168 274.046 69.352C275.246 68.536 276.59 67.936 278.078 67.552C279.614 67.12 281.15 66.784 282.686 66.544C284.222 66.304 285.734 66.112 287.222 65.968C288.71 65.824 290.03 65.608 291.182 65.32C292.334 65.032 293.246 64.624 293.918 64.096C294.59 63.52 294.902 62.704 294.854 61.648C294.854 60.544 294.662 59.68 294.278 59.056C293.942 58.384 293.462 57.88 292.838 57.544C292.262 57.16 291.566 56.92 290.75 56.824C289.982 56.68 289.142 56.608 288.23 56.608C286.214 56.608 284.63 57.04 283.478 57.904C282.326 58.768 281.654 60.208 281.462 62.224H271.238ZM294.854 69.784C294.422 70.168 293.87 70.48 293.198 70.72C292.574 70.912 291.878 71.08 291.11 71.224C290.39 71.368 289.622 71.488 288.806 71.584C287.99 71.68 287.174 71.8 286.358 71.944C285.59 72.088 284.822 72.28 284.054 72.52C283.334 72.76 282.686 73.096 282.11 73.528C281.582 73.912 281.15 74.416 280.814 75.04C280.478 75.664 280.31 76.456 280.31 77.416C280.31 78.328 280.478 79.096 280.814 79.72C281.15 80.344 281.606 80.848 282.182 81.232C282.758 81.568 283.43 81.808 284.198 81.952C284.966 82.096 285.758 82.168 286.574 82.168C288.59 82.168 290.15 81.832 291.254 81.16C292.358 80.488 293.174 79.696 293.702 78.784C294.23 77.824 294.542 76.864 294.638 75.904C294.782 74.944 294.854 74.176 294.854 73.6V69.784ZM310.854 50.776V88H321.078V68.488C321.078 64.696 321.702 61.984 322.95 60.352C324.198 58.672 326.214 57.832 328.998 57.832C331.446 57.832 333.15 58.6 334.11 60.136C335.07 61.624 335.55 63.904 335.55 66.976V88H345.774V65.104C345.774 62.8 345.558 60.712 345.126 58.84C344.742 56.92 344.046 55.312 343.038 54.016C342.03 52.672 340.638 51.64 338.862 50.92C337.134 50.152 334.902 49.768 332.166 49.768C330.006 49.768 327.894 50.272 325.83 51.28C323.766 52.24 322.086 53.8 320.79 55.96H320.574V50.776H310.854ZM368.725 79.216C367.141 79.216 365.821 78.88 364.765 78.208C363.709 77.536 362.845 76.672 362.173 75.616C361.549 74.56 361.093 73.384 360.805 72.088C360.565 70.744 360.445 69.4 360.445 68.056C360.445 66.664 360.589 65.344 360.877 64.096C361.213 62.8 361.717 61.672 362.389 60.712C363.109 59.704 363.973 58.912 364.981 58.336C366.037 57.76 367.285 57.472 368.725 57.472C370.405 57.472 371.797 57.784 372.901 58.408C374.005 59.032 374.893 59.872 375.565 60.928C376.237 61.984 376.717 63.208 377.005 64.6C377.293 65.944 377.437 67.384 377.437 68.92C377.437 70.264 377.245 71.56 376.861 72.808C376.525 74.008 375.997 75.088 375.277 76.048C374.557 77.008 373.645 77.776 372.541 78.352C371.437 78.928 370.165 79.216 368.725 79.216ZM387.157 85.624V50.776H377.437V55.744H377.293C376.045 53.584 374.485 52.048 372.613 51.136C370.789 50.224 368.653 49.768 366.205 49.768C363.613 49.768 361.309 50.272 359.293 51.28C357.325 52.288 355.669 53.656 354.325 55.384C352.981 57.064 351.949 59.032 351.229 61.288C350.557 63.496 350.221 65.8 350.221 68.2C350.221 70.744 350.509 73.168 351.085 75.472C351.709 77.728 352.669 79.72 353.965 81.448C355.261 83.128 356.917 84.472 358.933 85.48C360.949 86.44 363.349 86.92 366.133 86.92C368.389 86.92 370.525 86.464 372.541 85.552C374.605 84.592 376.189 83.128 377.293 81.16H377.437V86.056C377.485 88.696 376.837 90.88 375.493 92.608C374.197 94.336 372.109 95.2 369.229 95.2C367.405 95.2 365.797 94.816 364.405 94.048C363.013 93.328 362.077 92.008 361.597 90.088H351.445C351.589 92.2 352.165 94 353.173 95.488C354.229 97.024 355.525 98.272 357.061 99.232C358.645 100.192 360.373 100.888 362.245 101.32C364.165 101.8 366.037 102.04 367.861 102.04C372.133 102.04 375.541 101.464 378.085 100.312C380.629 99.16 382.573 97.744 383.917 96.064C385.261 94.432 386.125 92.656 386.509 90.736C386.941 88.816 387.157 87.112 387.157 85.624ZM418.285 65.392H401.653C401.701 64.672 401.845 63.856 402.085 62.944C402.373 62.032 402.829 61.168 403.453 60.352C404.125 59.536 404.989 58.864 406.045 58.336C407.149 57.76 408.517 57.472 410.149 57.472C412.645 57.472 414.493 58.144 415.693 59.488C416.941 60.832 417.805 62.8 418.285 65.392ZM401.653 71.872H428.509C428.701 68.992 428.461 66.232 427.789 63.592C427.117 60.952 426.013 58.6 424.477 56.536C422.989 54.472 421.069 52.84 418.717 51.64C416.365 50.392 413.605 49.768 410.437 49.768C407.605 49.768 405.013 50.272 402.661 51.28C400.357 52.288 398.365 53.68 396.685 55.456C395.005 57.184 393.709 59.248 392.797 61.648C391.885 64.048 391.429 66.64 391.429 69.424C391.429 72.304 391.861 74.944 392.725 77.344C393.637 79.744 394.909 81.808 396.541 83.536C398.173 85.264 400.165 86.608 402.517 87.568C404.869 88.48 407.509 88.936 410.437 88.936C414.661 88.936 418.261 87.976 421.237 86.056C424.213 84.136 426.421 80.944 427.861 76.48H418.861C418.525 77.632 417.613 78.736 416.125 79.792C414.637 80.8 412.861 81.304 410.797 81.304C407.917 81.304 405.709 80.56 404.173 79.072C402.637 77.584 401.797 75.184 401.653 71.872ZM432.413 50.776V88H442.637V71.224C442.637 69.544 442.805 67.984 443.141 66.544C443.477 65.104 444.029 63.856 444.797 62.8C445.613 61.696 446.669 60.832 447.965 60.208C449.261 59.584 450.845 59.272 452.717 59.272C453.341 59.272 453.989 59.32 454.661 59.416C455.333 59.464 455.909 59.536 456.389 59.632V50.128C455.573 49.888 454.829 49.768 454.157 49.768C452.861 49.768 451.613 49.96 450.413 50.344C449.213 50.728 448.085 51.28 447.029 52C445.973 52.672 445.037 53.512 444.221 54.52C443.405 55.48 442.757 56.536 442.277 57.688H442.133V50.776H432.413ZM466.157 75.904H456.437C456.533 78.4 457.085 80.488 458.093 82.168C459.149 83.8 460.469 85.12 462.053 86.128C463.685 87.136 465.533 87.856 467.597 88.288C469.661 88.72 471.773 88.936 473.933 88.936C476.045 88.936 478.109 88.72 480.125 88.288C482.189 87.904 484.013 87.208 485.597 86.2C487.181 85.192 488.453 83.872 489.413 82.24C490.421 80.56 490.925 78.496 490.925 76.048C490.925 74.32 490.589 72.88 489.917 71.728C489.245 70.528 488.357 69.544 487.253 68.776C486.149 67.96 484.877 67.312 483.437 66.832C482.045 66.352 480.605 65.944 479.117 65.608C477.677 65.272 476.261 64.96 474.869 64.672C473.477 64.384 472.229 64.072 471.125 63.736C470.069 63.352 469.205 62.872 468.533 62.296C467.861 61.72 467.525 60.976 467.525 60.064C467.525 59.296 467.717 58.696 468.101 58.264C468.485 57.784 468.941 57.424 469.469 57.184C470.045 56.944 470.669 56.8 471.341 56.752C472.013 56.656 472.637 56.608 473.213 56.608C475.037 56.608 476.621 56.968 477.965 57.688C479.309 58.36 480.053 59.68 480.197 61.648H489.917C489.725 59.344 489.125 57.448 488.117 55.96C487.157 54.424 485.933 53.2 484.445 52.288C482.957 51.376 481.253 50.728 479.333 50.344C477.461 49.96 475.517 49.768 473.501 49.768C471.485 49.768 469.517 49.96 467.597 50.344C465.677 50.68 463.949 51.304 462.413 52.216C460.877 53.08 459.629 54.28 458.669 55.816C457.757 57.352 457.301 59.32 457.301 61.72C457.301 63.352 457.637 64.744 458.309 65.896C458.981 67 459.869 67.936 460.973 68.704C462.077 69.424 463.325 70.024 464.717 70.504C466.157 70.936 467.621 71.32 469.109 71.656C472.757 72.424 475.589 73.192 477.605 73.96C479.669 74.728 480.701 75.88 480.701 77.416C480.701 78.328 480.485 79.096 480.053 79.72C479.621 80.296 479.069 80.776 478.397 81.16C477.773 81.496 477.053 81.76 476.237 81.952C475.469 82.096 474.725 82.168 474.005 82.168C472.997 82.168 472.013 82.048 471.053 81.808C470.141 81.568 469.325 81.208 468.605 80.728C467.885 80.2 467.285 79.552 466.805 78.784C466.373 77.968 466.157 77.008 466.157 75.904Z" fill="white"/>
<defs>
<filter id="filter0_ddi_0_1" x="0" y="0" width="121" height="121" filterUnits="userSpaceOnUse" color-interpolation-filters="sRGB">
<feFlood flood-opacity="0" result="BackgroundImageFix"/>
<feColorMatrix in="SourceAlpha" type="matrix" values="0 0 0 0 0 0 0 0 0 0 0 0 0 0 0 0 0 0 127 0" result="hardAlpha"/>
<feOffset dx="7" dy="7"/>
<feGaussianBlur stdDeviation="10"/>
<feComposite in2="hardAlpha" operator="out"/>
<feColorMatrix type="matrix" values="0 0 0 0 0 0 0 0 0 0 0 0 0 0 0 0 0 0 0.49 0"/>
<feBlend mode="normal" in2="BackgroundImageFix" result="effect1_dropShadow_0_1"/>
<feColorMatrix in="SourceAlpha" type="matrix" values="0 0 0 0 0 0 0 0 0 0 0 0 0 0 0 0 0 0 127 0" result="hardAlpha"/>
<feOffset dx="-7" dy="-7"/>
<feGaussianBlur stdDeviation="10"/>
<feComposite in2="hardAlpha" operator="out"/>
<feColorMatrix type="matrix" values="0 0 0 0 1 0 0 0 0 1 0 0 0 0 1 0 0 0 0.11 0"/>
<feBlend mode="normal" in2="effect1_dropShadow_0_1" result="effect2_dropShadow_0_1"/>
<feBlend mode="normal" in="SourceGraphic" in2="effect2_dropShadow_0_1" result="shape"/>
<feColorMatrix in="SourceAlpha" type="matrix" values="0 0 0 0 0 0 0 0 0 0 0 0 0 0 0 0 0 0 127 0" result="hardAlpha"/>
<feOffset dx="10" dy="10"/>
<feGaussianBlur stdDeviation="10"/>
<feComposite in2="hardAlpha" operator="arithmetic" k2="-1" k3="1"/>
<feColorMatrix type="matrix" values="0 0 0 0 0 0 0 0 0 0 0 0 0 0 0 0 0 0 0.17 0"/>
<feBlend mode="normal" in2="shape" result="effect3_innerShadow_0_1"/>
</filter>
<linearGradient id="paint0_linear_0_1" x1="42" y1="41" x2="88.75" y2="79" gradientUnits="userSpaceOnUse">
<stop offset="0.0868801" stop-color="#FF7A00"/>
<stop offset="1" stop-color="#EF05F3"/>
</linearGradient>
</defs>
</svg>
